<svg width="122" height="122" viewBox="0 0 122 122" fill="none" xmlns="http://www.w3.org/2000/svg">
<g filter="url(#filter0_d_2506_457)">
<rect x="4" width="114" height="114" rx="20" fill="white"/>
<path d="M45.0303 68.7798C45.0303 72.5198 43.9963 75.3358 41.9283 77.2278C39.9043 79.0758 36.9783 79.9998 33.1503 79.9998H32.1603C28.3323 79.9998 25.3843 79.0758 23.3163 77.2278C21.2923 75.3358 20.2803 72.5198 20.2803 68.7798V33.7998H26.0223V70.0338C26.0223 71.3978 26.5283 72.5638 27.5403 73.5318C28.5523 74.4998 29.8723 74.9838 31.5003 74.9838H33.8103C35.4383 74.9838 36.7583 74.4998 37.7703 73.5318C38.7823 72.5638 39.2883 71.3978 39.2883 70.0338V33.7998H45.0303V68.7798Z" fill="black"/>
<path d="M70.4506 68.7798C70.4506 72.5198 69.4166 75.3358 67.3486 77.2278C65.3246 79.0758 62.3986 79.9998 58.5706 79.9998H52.3006V74.9838H59.2306C60.8586 74.9838 62.1786 74.4998 63.1906 73.5318C64.2026 72.5638 64.7086 71.3978 64.7086 70.0338V38.7498H54.7426V33.7998H70.4506V68.7798Z" fill="black"/>
<path d="M92.2229 79.9998C88.3949 79.9998 85.4469 79.0758 83.3789 77.2278C81.3549 75.3358 80.3428 72.5198 80.3428 68.7798V45.0198C80.3428 41.2798 81.3549 38.4858 83.3789 36.6378C85.4469 34.7458 88.3949 33.7998 92.2229 33.7998H101.133V38.8158H91.5629C89.9349 38.8158 88.6149 39.2998 87.6029 40.2678C86.5909 41.2358 86.0849 42.4018 86.0849 43.7658V70.0338C86.0849 71.3978 86.5909 72.5638 87.6029 73.5318C88.6149 74.4998 89.9349 74.9838 91.5629 74.9838H97.6348V60.6618H92.0909V55.7118H103.113V79.9998H92.2229Z" fill="black"/>
</g>
<defs>
<filter id="filter0_d_2506_457" x="0" y="0" width="122" height="122" filterUnits="userSpaceOnUse" color-interpolation-filters="sRGB">
<feFlood flood-opacity="0" result="BackgroundImageFix"/>
<feColorMatrix in="SourceAlpha" type="matrix" values="0 0 0 0 0 0 0 0 0 0 0 0 0 0 0 0 0 0 127 0" result="hardAlpha"/>
<feOffset dy="4"/>
<feGaussianBlur stdDeviation="2"/>
<feComposite in2="hardAlpha" operator="out"/>
<feColorMatrix type="matrix" values="0 0 0 0 0 0 0 0 0 0 0 0 0 0 0 0 0 0 0.25 0"/>
<feBlend mode="normal" in2="BackgroundImageFix" result="effect1_dropShadow_2506_457"/>
<feBlend mode="normal" in="SourceGraphic" in2="effect1_dropShadow_2506_457" result="shape"/>
</filter>
</defs>
</svg>
